<?xml version="1.0" encoding="UTF-8" standalone="no"?>
<!-- Generator: Adobe Illustrator 16.0.0, SVG Export Plug-In . SVG Version: 6.00 Build 0)  -->

<svg
   xmlns:dc="http://purl.org/dc/elements/1.1/"
   xmlns:cc="http://creativecommons.org/ns#"
   xmlns:rdf="http://www.w3.org/1999/02/22-rdf-syntax-ns#"
   xmlns:svg="http://www.w3.org/2000/svg"
   xmlns="http://www.w3.org/2000/svg"
   xmlns:sodipodi="http://sodipodi.sourceforge.net/DTD/sodipodi-0.dtd"
   xmlns:inkscape="http://www.inkscape.org/namespaces/inkscape"
   version="1.1"
   id="Layer_1"
   x="0px"
   y="0px"
   width="400"
   height="193.411616516"
   viewBox="0 0 655.56354 316.98401"
   enable-background="new 0 0 1065 735.081"
   xml:space="preserve"
   inkscape:version="0.48.5 r10040"
   sodipodi:docname="logo.svg"><metadata
     id="metadata3147"><rdf:RDF><cc:Work
         rdf:about=""><dc:format>image/svg+xml</dc:format><dc:type
           rdf:resource="http://purl.org/dc/dcmitype/StillImage" /></cc:Work></rdf:RDF></metadata><defs
     id="defs3145" /><sodipodi:namedview
     pagecolor="#000000"
     bordercolor="#666666"
     borderopacity="1"
     objecttolerance="10"
     gridtolerance="10"
     guidetolerance="10"
     inkscape:pageopacity="0"
     inkscape:pageshadow="2"
     inkscape:window-width="1920"
     inkscape:window-height="1056"
     id="namedview3143"
     showgrid="false"
     showguides="true"
     inkscape:snap-page="true"
     fit-margin-top="10"
     fit-margin-left="10"
     fit-margin-right="10"
     fit-margin-bottom="10"
     inkscape:zoom="1.2406796"
     inkscape:cx="200.37349"
     inkscape:cy="-74.661389"
     inkscape:window-x="0"
     inkscape:window-y="24"
     inkscape:window-maximized="1"
     inkscape:current-layer="Layer_1" /><path
     d="m 325.486,167.36 v -2.19 -2.185 -45.691 c 0,-2.845 2.398,-5.249 5.246,-5.249 3.055,0 5.461,2.404 5.461,5.249 v 15.517 c 9.186,-12.459 24.051,-20.765 40.664,-20.765 28.861,0 51.811,23.832 51.811,53.124 0,29.076 -22.949,53.343 -51.811,53.343 -16.613,0 -31.479,-8.309 -40.664,-20.987 v 61.214 c 0,2.842 -2.406,5.246 -5.461,5.246 -2.848,0 -5.246,-2.404 -5.246,-5.246 v -91.38 z m 10.707,-2.191 c 0,23.609 18.584,42.631 40.664,42.85 22.736,-0.219 41.104,-19.24 41.104,-42.85 0,-23.61 -18.367,-42.412 -41.104,-42.412 -21.646,0 -39.787,17.923 -40.664,40.662 v 1.75 z"
     id="path3095"
     inkscape:connector-curvature="0"
     style="fill:#000000" /><path
     d="m 539.644,117.294 v 96.625 c 0,2.848 -2.406,5.251 -5.252,5.251 -2.842,0 -5.244,-2.403 -5.244,-5.251 v -15.954 c -9.18,12.68 -23.83,21.205 -40.225,21.205 -28.203,0 -50.723,-24.27 -50.723,-53.563 0,-29.292 22.52,-53.562 50.723,-53.562 16.395,0 31.045,8.306 40.225,20.987 v -15.738 c 0,-3.061 2.402,-5.249 5.244,-5.249 2.846,0 5.252,2.188 5.252,5.249 z m -10.496,48.313 c 0,-24.047 -18.143,-43.284 -40.225,-43.284 -21.863,0 -40.227,19.237 -40.227,43.284 0,24.051 18.363,43.069 40.227,43.069 22.083,0 40.225,-19.018 40.225,-43.069 z"
     id="path3097"
     inkscape:connector-curvature="0"
     style="fill:#000000" /><path
     d="m 642.799,116.645 c -0.219,-0.657 -0.873,-1.312 -1.309,-1.747 -0.879,-0.438 -1.75,-0.873 -2.625,-1.095 h -0.654 -0.658 c -0.221,0 -0.439,0.222 -0.656,0.222 h -0.438 c -0.652,0.216 -1.531,0.654 -1.969,1.308 -0.217,0 -0.217,0.219 -0.438,0.219 0,0.222 -0.215,0.435 -0.215,0.657 -0.66,0.654 -0.875,1.749 -0.875,2.623 v 56.19 1.96 c -0.219,18.367 -14.865,33.013 -33.232,33.013 -18.145,0 -32.791,-14.646 -32.791,-33.013 v -58.15 c 0,-2.845 -2.404,-5.029 -5.469,-5.029 -2.619,0 -5.031,2.185 -5.031,5.029 v 58.15 c 0,24.05 19.465,43.506 43.291,43.729 13.338,0 25.143,-6.124 33.232,-15.306 v 6.997 50.857 c -0.219,18.368 -14.865,33.014 -33.232,33.014 -18.145,0 -32.791,-14.646 -32.791,-33.014 v -5.613 c 0,-2.842 -2.404,-5.029 -5.469,-5.029 -2.619,0 -5.031,2.188 -5.031,5.029 v 5.613 c 0,24.049 19.465,43.506 43.291,43.725 13.338,0 25.143,-6.117 33.232,-15.303 9.912,-12.751 10.49,-23.837 10.49,-26.453 0,-1.04 0,-1.633 0,-1.969 v -0.368 -50.489 -33.452 -1.968 -1.96 -56.19 c 10e-4,-0.653 -0.216,-1.527 -0.653,-2.187 z"
     id="path3099"
     inkscape:connector-curvature="0"
     style="fill:#000000" /><path
     d="M 152.24,10 C 73.682995,10 9.9999955,73.685 9.9999955,152.234 c 0,78.555 63.6839995,142.243 142.2400045,142.243 78.553,0 142.236,-63.688 142.236,-142.243 C 294.476,73.685 230.793,10 152.24,10 z M 92.598995,201.331 c -0.857,1.06 -2.367,1.486 -3.445,1.486 -0.645,0 -1.072,0 -1.723,-0.213 -0.217,0 -0.217,0 -0.428,-0.214 -0.438,0 -0.65,-0.21 -1.08,-0.423 -0.648,-0.637 -1.297,-1.268 -1.723,-2.331 l -39.648,-92.74 c -1.08,-2.538 0.215,-5.502 2.582,-6.563 2.588,-1.06 5.814,0.21 6.682,2.748 l 35.125,81.733 35.127005,-81.733 c 0.859,-2.538 4.092,-3.808 6.676,-2.748 2.588,1.06 3.666,4.024 2.588,6.563 l -39.438005,91.896 c -0.211,0.845 -0.646,1.689 -1.295,2.539 z M 257.363,204.14 c -2.543,1.061 -5.719,-0.21 -6.564,-2.75 l -34.512,-81.734 -21.631,51.214 c 0,0 -1.199,2.844 -2.68,6.357 -1.48,3.508 -3.893,3.493 -5.377,-0.029 l -2.693,-6.372 -21.6,-51.17 -34.518,81.734 c -0.844,2.54 -4.023,3.811 -6.57,2.75 -2.318,-1.054 -3.596,-4.021 -2.535,-6.563 l 38.957,-92.74 c 0.426,-1.06 1.063,-1.697 1.695,-2.331 0.424,-0.21 0.641,-0.423 1.061,-0.423 0.211,-0.213 0.211,-0.213 0.422,-0.213 0.639,-0.213 1.057,-0.213 1.689,-0.213 1.066,0 2.547,0.427 3.391,1.484 0.637,0.85 1.059,1.697 1.273,2.543 l 22.088,52.388 22.365,-53.235 c 0.424,-1.06 1.061,-1.697 1.691,-2.331 0.432,-0.21 0.643,-0.423 1.063,-0.423 0.211,-0.213 0.211,-0.213 0.422,-0.213 0.639,-0.213 1.063,-0.213 1.693,-0.213 1.063,0 2.541,0.427 3.391,1.484 0.637,0.85 1.057,1.697 1.268,2.543 l 38.748,91.893 c 1.065,2.542 0,5.509 -2.537,6.563 z"
     id="path3101"
     inkscape:connector-curvature="0"
     style="fill:#000000" /><path
     d="m 326.556,81.639 c 0,-0.338 0.287,-0.624 0.625,-0.624 h 0.078 5.066 c 2.859,0 5.172,2.339 5.172,5.197 0,2.858 -2.313,5.171 -5.172,5.171 l -4.496,0.052 v 7.146 c 0,0.338 -0.285,0.624 -0.648,0.624 -0.338,0 -0.625,-0.286 -0.625,-0.624 V 81.639 z m 5.77,8.523 c 2.156,-0.026 3.924,-1.793 3.924,-3.95 0,-2.157 -1.768,-3.924 -3.924,-3.924 h -4.496 v 7.874 h 4.496 z"
     id="path3103"
     inkscape:connector-curvature="0"
     style="fill:#000000" /><path
     d="m 348.541,94.502 h -8.291 l -1.609,4.288 c -0.105,0.26 -0.338,0.416 -0.598,0.416 -0.053,0 -0.156,-0.026 -0.234,-0.026 -0.313,-0.13 -0.494,-0.52 -0.363,-0.832 l 6.314,-16.865 c 0.104,-0.234 0.363,-0.39 0.623,-0.39 0.285,0 0.545,0.156 0.623,0.39 l 6.314,16.865 c 0.131,0.312 -0.025,0.702 -0.338,0.832 -0.104,0 -0.156,0.026 -0.232,0.026 -0.234,0 -0.494,-0.156 -0.598,-0.416 l -1.611,-4.288 z m -7.822,-1.273 h 7.354 l -3.664,-9.771 -3.69,9.771 z"
     id="path3105"
     inkscape:connector-curvature="0"
     style="fill:#000000" /><path
     d="m 361.738,91.02 c -0.363,0 -0.65,-0.26 -0.65,-0.624 0,-0.364 0.287,-0.65 0.65,-0.65 h 5.613 0.078 c 0.311,0.026 0.572,0.312 0.572,0.65 v 6.236 0.104 c -0.027,0.182 -0.105,0.364 -0.234,0.468 -1.611,1.273 -3.639,2.001 -5.873,2.001 -5.223,-0.026 -9.459,-4.106 -9.459,-9.251 0,-5.067 4.236,-9.199 9.459,-9.199 2.26,0 4.262,0.779 5.898,2.053 0.234,0.182 0.313,0.624 0.078,0.883 -0.207,0.26 -0.598,0.312 -0.91,0.104 -1.324,-1.091 -3.117,-1.767 -5.066,-1.767 -4.547,0 -8.186,3.56 -8.186,7.926 0,4.417 3.639,7.978 8.186,7.978 1.768,0 3.455,-0.572 4.807,-1.559 V 91.02 h -4.963 z"
     id="path3107"
     inkscape:connector-curvature="0"
     style="fill:#000000" /><path
     d="m 383.045,94.502 h -8.291 l -1.609,4.288 c -0.105,0.26 -0.338,0.416 -0.598,0.416 -0.053,0 -0.156,-0.026 -0.234,-0.026 -0.313,-0.13 -0.494,-0.52 -0.363,-0.832 l 6.314,-16.865 c 0.104,-0.234 0.363,-0.39 0.623,-0.39 0.285,0 0.545,0.156 0.623,0.39 l 6.314,16.865 c 0.131,0.312 -0.025,0.702 -0.338,0.832 -0.104,0 -0.156,0.026 -0.232,0.026 -0.234,0 -0.494,-0.156 -0.598,-0.416 l -1.611,-4.288 z m -7.823,-1.273 h 7.354 l -3.664,-9.771 -3.69,9.771 z"
     id="path3109"
     inkscape:connector-curvature="0"
     style="fill:#000000" /><path
     d="m 402.609,83.614 -5.82,8.082 c -0.129,0.208 -0.338,0.286 -0.52,0.286 h -0.051 c -0.234,0 -0.416,-0.078 -0.547,-0.286 l -5.82,-8.056 v 14.942 c 0,0.338 -0.285,0.624 -0.623,0.624 -0.365,0 -0.65,-0.286 -0.65,-0.624 V 81.743 c 0,-0.208 0.104,-0.39 0.26,-0.494 0,-0.026 0.025,-0.026 0.053,-0.052 0.285,-0.182 0.676,-0.13 0.883,0.156 l 6.471,8.965 6.443,-8.965 c 0.184,-0.286 0.598,-0.338 0.885,-0.156 0.078,0.078 0.129,0.13 0.182,0.208 0.051,0.104 0.104,0.234 0.104,0.338 v 16.839 c 0,0.338 -0.285,0.624 -0.623,0.624 -0.363,0 -0.625,-0.286 -0.625,-0.624 V 83.614 z"
     id="path3111"
     inkscape:connector-curvature="0"
     style="fill:#000000" /><path
     d="m 407.908,81.639 c 0,-0.338 0.287,-0.624 0.625,-0.624 h 0.051 9.303 c 0.365,0 0.625,0.286 0.625,0.624 0,0.364 -0.26,0.65 -0.625,0.65 h -8.705 v 7.198 h 7.615 c 0.338,0 0.623,0.286 0.623,0.65 0,0.337 -0.285,0.624 -0.623,0.624 h -7.615 v 7.172 h 8.705 c 0.365,0 0.625,0.286 0.625,0.65 0,0.338 -0.26,0.624 -0.625,0.624 h -9.275 -0.078 -0.053 c -0.313,-0.026 -0.572,-0.286 -0.572,-0.624 V 81.639 z"
     id="path3113"
     inkscape:connector-curvature="0"
     style="fill:#000000" /><path
     d="m 423.342,83.692 v 14.89 c 0,0.338 -0.285,0.624 -0.623,0.624 -0.338,0 -0.623,-0.286 -0.623,-0.624 V 81.899 c -0.078,-0.26 0,-0.52 0.234,-0.702 0.285,-0.182 0.701,-0.13 0.883,0.156 l 11.018,15.279 V 81.82 c 0,-0.338 0.285,-0.624 0.623,-0.624 0.365,0 0.65,0.286 0.65,0.624 v 16.761 c 0,0.338 -0.285,0.624 -0.65,0.624 -0.207,0 -0.363,-0.078 -0.492,-0.234 -0.027,-0.026 -0.078,-0.052 -0.105,-0.104 L 423.342,83.692 z"
     id="path3115"
     inkscape:connector-curvature="0"
     style="fill:#000000" /><path
     d="m 445.195,82.289 h -5.484 c -0.338,0 -0.623,-0.286 -0.623,-0.65 0,-0.338 0.285,-0.624 0.623,-0.624 h 12.215 c 0.336,0 0.623,0.286 0.623,0.624 0,0.364 -0.287,0.65 -0.623,0.65 h -5.484 v 16.293 c 0,0.338 -0.285,0.624 -0.623,0.624 -0.338,0 -0.623,-0.286 -0.623,-0.624 V 82.289 z"
     id="path3117"
     inkscape:connector-curvature="0"
     style="fill:#000000" /><path
     d="m 462.576,80.756 c 4.859,0 8.68,4.131 8.707,9.225 -0.027,5.093 -3.848,9.225 -8.707,9.225 -4.91,0 -8.756,-4.132 -8.783,-9.225 0.027,-5.094 3.873,-9.225 8.783,-9.225 z m 0,17.176 c 4.002,0 7.381,-3.508 7.406,-7.952 -0.025,-4.496 -3.404,-7.925 -7.406,-7.925 -4.131,0 -7.51,3.43 -7.51,7.925 0,4.444 3.379,7.952 7.51,7.952 z"
     id="path3119"
     inkscape:connector-curvature="0"
     style="fill:#000000" /><path
     d="m 509.863,82.289 h -5.482 c -0.338,0 -0.625,-0.286 -0.625,-0.65 0,-0.338 0.287,-0.624 0.625,-0.624 h 12.213 c 0.338,0 0.623,0.286 0.623,0.624 0,0.364 -0.285,0.65 -0.623,0.65 h -5.482 v 16.293 c 0,0.338 -0.287,0.624 -0.625,0.624 -0.338,0 -0.623,-0.286 -0.623,-0.624 V 82.289 z"
     id="path3121"
     inkscape:connector-curvature="0"
     style="fill:#000000" /><path
     d="m 520.697,81.639 c 0,-0.338 0.287,-0.624 0.625,-0.624 h 0.051 9.303 c 0.365,0 0.625,0.286 0.625,0.624 0,0.364 -0.26,0.65 -0.625,0.65 h -8.705 v 7.198 h 7.615 c 0.338,0 0.623,0.286 0.623,0.65 0,0.337 -0.285,0.624 -0.623,0.624 h -7.615 v 7.172 h 8.705 c 0.365,0 0.625,0.286 0.625,0.65 0,0.338 -0.26,0.624 -0.625,0.624 h -9.275 -0.078 -0.053 c -0.313,-0.026 -0.572,-0.286 -0.572,-0.624 V 81.639 z"
     id="path3123"
     inkscape:connector-curvature="0"
     style="fill:#000000" /><path
     d="m 535.482,99.205 h -0.053 c -0.338,0 -0.623,-0.286 -0.623,-0.624 V 81.638 c 0,-0.338 0.285,-0.624 0.623,-0.624 0.365,0 0.65,0.286 0.65,0.624 v 16.293 h 8.705 c 0.363,0 0.65,0.286 0.65,0.65 0,0.338 -0.287,0.624 -0.65,0.624 h -9.302 z"
     id="path3125"
     inkscape:connector-curvature="0"
     style="fill:#000000" /><path
     d="m 548.135,81.639 c 0,-0.338 0.285,-0.624 0.623,-0.624 h 0.053 9.303 c 0.363,0 0.623,0.286 0.623,0.624 0,0.364 -0.26,0.65 -0.623,0.65 h -8.705 v 7.198 h 7.613 c 0.338,0 0.623,0.286 0.623,0.65 0,0.337 -0.285,0.624 -0.623,0.624 h -7.613 v 7.172 h 8.705 c 0.363,0 0.623,0.286 0.623,0.65 0,0.338 -0.26,0.624 -0.623,0.624 h -9.277 -0.078 -0.051 c -0.313,-0.026 -0.572,-0.286 -0.572,-0.624 V 81.639 z"
     id="path3127"
     inkscape:connector-curvature="0"
     style="fill:#000000" /><path
     d="m 576.275,83.614 -5.82,8.082 c -0.131,0.208 -0.338,0.286 -0.52,0.286 h -0.053 c -0.234,0 -0.416,-0.078 -0.545,-0.286 l -5.822,-8.056 v 14.942 c 0,0.338 -0.285,0.624 -0.623,0.624 -0.363,0 -0.65,-0.286 -0.65,-0.624 V 81.743 c 0,-0.208 0.105,-0.39 0.26,-0.494 0,-0.026 0.027,-0.026 0.053,-0.052 0.285,-0.182 0.676,-0.13 0.883,0.156 l 6.471,8.965 6.445,-8.965 c 0.182,-0.286 0.598,-0.338 0.883,-0.156 0.078,0.078 0.131,0.13 0.182,0.208 0.053,0.104 0.105,0.234 0.105,0.338 v 16.839 c 0,0.338 -0.287,0.624 -0.625,0.624 -0.363,0 -0.623,-0.286 -0.623,-0.624 V 83.614 z"
     id="path3129"
     inkscape:connector-curvature="0"
     style="fill:#000000" /><path
     d="m 581.574,81.639 c 0,-0.338 0.285,-0.624 0.623,-0.624 h 0.053 9.303 c 0.363,0 0.623,0.286 0.623,0.624 0,0.364 -0.26,0.65 -0.623,0.65 h -8.705 v 7.198 h 7.613 c 0.338,0 0.623,0.286 0.623,0.65 0,0.337 -0.285,0.624 -0.623,0.624 h -7.613 v 7.172 h 8.705 c 0.363,0 0.623,0.286 0.623,0.65 0,0.338 -0.26,0.624 -0.623,0.624 h -9.277 -0.078 -0.051 c -0.313,-0.026 -0.572,-0.286 -0.572,-0.624 V 81.639 z"
     id="path3131"
     inkscape:connector-curvature="0"
     style="fill:#000000" /><path
     d="m 600.386,82.289 h -5.484 c -0.338,0 -0.623,-0.286 -0.623,-0.65 0,-0.338 0.285,-0.624 0.623,-0.624 h 12.215 c 0.336,0 0.623,0.286 0.623,0.624 0,0.364 -0.287,0.65 -0.623,0.65 h -5.484 v 16.293 c 0,0.338 -0.285,0.624 -0.623,0.624 -0.338,0 -0.623,-0.286 -0.623,-0.624 V 82.289 z"
     id="path3133"
     inkscape:connector-curvature="0"
     style="fill:#000000" /><path
     d="m 620.261,95.099 c 0,-1.325 -0.674,-2.157 -1.48,-2.754 -0.805,-0.572 -1.768,-0.857 -2.105,-0.909 -0.076,-0.026 -0.104,-0.052 -0.129,-0.052 h -4.418 v 7.198 c 0,0.338 -0.285,0.624 -0.65,0.624 -0.336,0 -0.623,-0.286 -0.623,-0.624 V 81.639 c 0,-0.312 0.26,-0.598 0.572,-0.624 h 0.051 0.078 5.068 c 2.857,0 5.17,2.313 5.17,5.197 0,2.079 -1.221,3.872 -2.988,4.703 0.078,0.052 0.156,0.078 0.26,0.13 1.195,0.676 2.443,2.001 2.443,4.054 0,1.065 0.104,1.715 0.234,2.105 0.104,0.312 0.234,0.416 0.26,0.442 0.285,-0.026 0.598,0.13 0.701,0.416 0.078,0.338 -0.078,0.702 -0.416,0.832 -0.025,0 -0.156,0.026 -0.311,0.026 h -0.053 c -0.338,0 -0.883,-0.26 -1.17,-0.832 -0.31,-0.597 -0.494,-1.455 -0.494,-2.989 z m -3.636,-12.81 h -4.496 v 7.848 h 4.365 0.234 c 2.105,-0.052 3.82,-1.793 3.82,-3.924 10e-4,-2.183 -1.767,-3.924 -3.923,-3.924 z"
     id="path3135"
     inkscape:connector-curvature="0"
     style="fill:#000000" /><path
     d="m 626.342,81.639 c 0,-0.338 0.285,-0.624 0.623,-0.624 0.365,0 0.65,0.286 0.65,0.624 v 16.943 c 0,0.338 -0.285,0.624 -0.65,0.624 -0.338,0 -0.623,-0.286 -0.623,-0.624 V 81.639 z"
     id="path3137"
     inkscape:connector-curvature="0"
     style="fill:#000000" /><path
     d="m 642.738,94.502 h -8.291 l -1.609,4.288 c -0.105,0.26 -0.338,0.416 -0.598,0.416 -0.053,0 -0.156,-0.026 -0.234,-0.026 -0.313,-0.13 -0.494,-0.52 -0.363,-0.832 l 6.314,-16.865 c 0.104,-0.234 0.363,-0.39 0.623,-0.39 0.285,0 0.545,0.156 0.623,0.39 l 6.314,16.865 c 0.131,0.312 -0.025,0.702 -0.338,0.832 -0.104,0 -0.156,0.026 -0.232,0.026 -0.234,0 -0.494,-0.156 -0.598,-0.416 l -1.611,-4.288 z m -7.822,-1.273 h 7.354 l -3.664,-9.771 -3.69,9.771 z"
     id="path3139"
     inkscape:connector-curvature="0"
     style="fill:#000000" /><circle
     cx="691.552"
     cy="297.53601"
     r="3"
     id="circle3141"
     sodipodi:cx="691.552"
     sodipodi:cy="297.53601"
     sodipodi:rx="3"
     sodipodi:ry="3"
     style="fill:#000000"
     transform="translate(-204.718,-209.048)" /></svg>
